<?xml version="1.0" encoding="utf-8"?>
<!-- Generator: Adobe Illustrator 15.0.0, SVG Export Plug-In . SVG Version: 6.00 Build 0)  -->
<!DOCTYPE svg PUBLIC "-//W3C//DTD SVG 1.1//EN" "http://www.w3.org/Graphics/SVG/1.1/DTD/svg11.dtd">
<svg version="1.1" id="Capa_1" xmlns="http://www.w3.org/2000/svg" xmlns:xlink="http://www.w3.org/1999/xlink" x="0px" y="0px"
	 width="138.129px" height="138.129px" viewBox="0 0 138.129 138.129" enable-background="new 0 0 138.129 138.129"
	 xml:space="preserve">
<g>
	
		<rect x="102.289" y="58.847" transform="matrix(0.8329 0.5534 -0.5534 0.8329 63.1869 -43.1471)" fill="#1D1D1D" width="1.527" height="48.453"/>
</g>
<g>
	<g>
		<ellipse fill="#1D1D1D" cx="69.997" cy="38.208" rx="7.668" ry="7.668"/>
	</g>
</g>
<g>
	<g>
		<path fill="#D4D0D3" d="M69.997,38.209"/>
	</g>
</g>
<g>
	<g>
		<path fill="#666666" d="M69.997,46.028c-4.311,0-7.819-3.507-7.819-7.819s3.509-7.82,7.819-7.82c4.312,0,7.818,3.508,7.818,7.82
			S74.309,46.028,69.997,46.028z M69.997,30.692c-4.146,0-7.518,3.372-7.518,7.517c0,4.144,3.372,7.516,7.518,7.516
			s7.516-3.372,7.516-7.516C77.513,34.064,74.143,30.692,69.997,30.692z"/>
	</g>
</g>
<g>
	<g>
		<path fill="#666666" stroke="#D4D0D3" stroke-width="3.2913" stroke-miterlimit="3.8637" d="M69.997,38.209"/>
	</g>
</g>
<g>
	<g>
		<path fill="#1D1D1D" d="M69.997,59.487c-5.685,0-11.028-2.213-15.048-6.232s-6.232-9.364-6.232-15.046
			c0-5.686,2.213-11.028,6.232-15.048s9.363-6.232,15.048-6.232s11.029,2.213,15.048,6.232c4.02,4.02,6.232,9.362,6.232,15.048
			c0,5.682-2.213,11.026-6.232,15.046C81.026,57.274,75.682,59.487,69.997,59.487z M69.997,18.456
			c-10.894,0-19.755,8.861-19.755,19.753s8.861,19.752,19.755,19.752s19.753-8.86,19.753-19.752S80.891,18.456,69.997,18.456z"/>
	</g>
</g>
<g>
	<g>
		<path fill="#1D1D1D" d="M69.997,38.209"/>
	</g>
</g>
<g>
	<g>
		<path fill="#1D1D1D" d="M70.101,104.25c-5.602,0-10.866-2.183-14.828-6.143c-3.96-3.96-6.142-9.227-6.142-14.825
			c0-5.603,2.182-10.87,6.142-14.83c3.962-3.96,9.227-6.141,14.828-6.141c5.601,0,10.868,2.181,14.827,6.141
			c3.961,3.96,6.142,9.228,6.142,14.83c0,5.599-2.181,10.865-6.142,14.825C80.969,102.067,75.701,104.25,70.101,104.25z
			 M70.101,63.839c-10.72,0-19.443,8.723-19.443,19.443c0,10.72,8.724,19.44,19.443,19.44s19.444-8.721,19.444-19.44
			C89.545,72.562,80.82,63.839,70.101,63.839z"/>
	</g>
</g>
<g>
	<g>
		<path fill="#666666" stroke="#D4D0D3" stroke-width="16.5978" stroke-miterlimit="3.8637" d="M70.101,83.282"/>
	</g>
</g>
<g>
	
		<rect x="78.199" y="82.101" transform="matrix(0.5518 0.834 -0.834 0.5518 115.02 -48.2802)" fill="#1D1D1D" width="48.454" height="1.529"/>
</g>
<g>
	<polygon fill="#1D1D1D" points="35.817,106.092 20.986,62.91 22.431,62.414 35.785,101.295 48.547,62.423 49.997,62.899 	"/>
</g>
<g>
	<path fill="#1D1D1D" d="M69.064,138.129c-9.324,0-18.369-1.826-26.883-5.428c-8.227-3.479-15.61-8.457-21.953-14.8
		c-6.342-6.343-11.322-13.73-14.8-21.954C1.826,87.434,0,78.388,0,69.064c0-9.322,1.826-18.369,5.429-26.882
		c3.478-8.226,8.458-15.612,14.8-21.954c6.343-6.343,13.727-11.322,21.953-14.801C50.695,1.827,59.74,0,69.064,0
		s18.368,1.827,26.883,5.428c8.225,3.479,15.611,8.458,21.953,14.801c6.342,6.342,11.322,13.729,14.801,21.954
		c3.602,8.513,5.428,17.56,5.428,26.882c0,9.323-1.826,18.369-5.428,26.883c-3.479,8.224-8.459,15.611-14.801,21.954
		s-13.729,11.321-21.953,14.8C87.433,136.303,78.389,138.129,69.064,138.129z M69.064,0.735c-37.678,0-68.328,30.652-68.328,68.329
		c0,37.676,30.65,68.328,68.328,68.328c37.674,0,68.328-30.652,68.328-68.328C137.393,31.39,106.738,0.735,69.064,0.735z"/>
</g>
<g>
	<path fill="none" stroke="#D4D0D3" stroke-width="7.9994" stroke-miterlimit="3.8637" d="M69.064,69.064"/>
</g>
</svg>
