<?xml version="1.0" encoding="utf-8"?>
<!-- Generator: Adobe Illustrator 15.0.0, SVG Export Plug-In . SVG Version: 6.00 Build 0)  -->
<!DOCTYPE svg PUBLIC "-//W3C//DTD SVG 1.1//EN" "http://www.w3.org/Graphics/SVG/1.1/DTD/svg11.dtd">
<svg version="1.1" id="Capa_1" xmlns="http://www.w3.org/2000/svg" xmlns:xlink="http://www.w3.org/1999/xlink" x="0px" y="0px"
	 width="90px" height="90px" viewBox="0 0 90 90" enable-background="new 0 0 90 90" xml:space="preserve">
<g>
	<g>
		<g>
			<g>
				<circle fill="#1D1D1D" cx="44.761" cy="45" r="44.761"/>
				<path fill="#D3CFD2" d="M44.761,90c-6.075,0-11.968-1.189-17.517-3.536c-5.358-2.267-10.17-5.511-14.303-9.644
					s-7.378-8.945-9.645-14.304C0.951,56.969-0.239,51.075-0.239,45c0-6.075,1.19-11.968,3.536-17.516
					c2.267-5.358,5.512-10.171,9.645-14.304s8.944-7.377,14.303-9.644C32.793,1.189,38.686,0,44.761,0s11.968,1.189,17.517,3.537
					c5.358,2.267,10.17,5.511,14.303,9.644s7.378,8.945,9.645,14.304C88.57,33.032,89.761,38.925,89.761,45
					c0,6.075-1.19,11.969-3.536,17.517c-2.267,5.358-5.512,10.171-9.645,14.304s-8.944,7.377-14.303,9.644
					C56.729,88.811,50.836,90,44.761,90z M44.761,0.479C20.212,0.479,0.24,20.452,0.24,45c0,24.549,19.972,44.521,44.521,44.521
					c24.548,0,44.521-19.972,44.521-44.521C89.281,20.452,69.309,0.479,44.761,0.479z"/>
			</g>
			<g>
				<path fill="#1D1D1D" stroke="#D3CFD2" stroke-width="7.9994" stroke-miterlimit="3.8637" d="M44.761,45"/>
			</g>
		</g>
	</g>
	<g>
		<g>
			<g>
				
					<rect x="66.409" y="38.342" transform="matrix(0.8342 0.5515 -0.5515 0.8342 40.9488 -27.9238)" fill="#D3CFD2" width="0.995" height="31.571"/>
			</g>
		</g>
		<g>
			<g>
				<g>
					<circle fill="#D3CFD2" cx="45.369" cy="24.895" r="4.997"/>
				</g>
				<g>
					<path fill="#D3CFD2" d="M45.369,24.895"/>
				</g>
			</g>
			<g>
				<g>
					<path fill="#D3CFD2" d="M45.369,29.99c-2.811,0-5.096-2.286-5.096-5.095c0-2.81,2.285-5.094,5.096-5.094
						c2.809,0,5.094,2.285,5.094,5.094C50.463,27.704,48.178,29.99,45.369,29.99z M45.369,19.998c-2.701,0-4.898,2.197-4.898,4.897
						c0,2.701,2.197,4.897,4.898,4.897c2.699,0,4.896-2.197,4.896-4.897C50.266,22.195,48.068,19.998,45.369,19.998z"/>
				</g>
				<g>
					<path fill="none" stroke="#D3CFD2" stroke-width="3.2913" stroke-miterlimit="3.8637" d="M45.369,24.895"/>
				</g>
			</g>
		</g>
		<g>
			<g>
				<g>
					<path fill="#D3CFD2" d="M45.369,38.76c-3.705,0-7.187-1.442-9.805-4.061c-2.619-2.619-4.063-6.101-4.063-9.804
						s1.443-7.186,4.063-9.804c2.618-2.618,6.1-4.061,9.805-4.061c3.703,0,7.186,1.442,9.804,4.061
						c2.619,2.619,4.062,6.101,4.062,9.804s-1.442,7.186-4.062,9.804C52.555,37.318,49.072,38.76,45.369,38.76z M45.369,12.025
						c-7.098,0-12.871,5.773-12.871,12.87c0,7.097,5.773,12.87,12.871,12.87c7.096,0,12.87-5.773,12.87-12.87
						C58.239,17.799,52.465,12.025,45.369,12.025z"/>
				</g>
				<g>
					<path fill="none" stroke="#D3CFD2" stroke-width="16.5978" stroke-miterlimit="3.8637" d="M45.369,24.895"/>
				</g>
			</g>
		</g>
		<g>
			<g>
				<g>
					<path fill="#D3CFD2" d="M45.436,67.926c-3.649,0-7.08-1.421-9.661-4.002c-2.581-2.58-4.001-6.011-4.001-9.661
						s1.42-7.081,4.001-9.661c2.581-2.581,6.012-4.002,9.661-4.002c3.65,0,7.081,1.421,9.662,4.002
						c2.58,2.58,4.002,6.011,4.002,9.661s-1.422,7.081-4.002,9.661C52.517,66.504,49.086,67.926,45.436,67.926z M45.436,41.596
						c-6.984,0-12.668,5.683-12.668,12.667s5.684,12.667,12.668,12.667c6.986,0,12.668-5.683,12.668-12.667
						S52.422,41.596,45.436,41.596z"/>
				</g>
				<g>
					<path fill="none" stroke="#D3CFD2" stroke-width="16.5978" stroke-miterlimit="3.8637" d="M45.436,54.263"/>
				</g>
			</g>
		</g>
		<g>
			<g>
				
					<rect x="50.713" y="53.496" transform="matrix(0.5518 0.834 -0.834 0.5518 74.8365 -31.2578)" fill="#D3CFD2" width="31.571" height="0.995"/>
			</g>
		</g>
		<g>
			<g>
				<polygon fill="#D3CFD2" points="23.098,69.125 13.436,40.99 14.376,40.667 23.077,66 31.393,40.673 32.338,40.983 				"/>
			</g>
		</g>
	</g>
</g>
</svg>
